# xmcd
#
# Track frame offsets: 
#        183
#        11908
#        26903
#        38043
#        52768
#        67905
#        87900
#        99690
#        115620
#        129308
#
# Disc length: 1866 seconds
#
# Revision: 2
# Processed by: cddbd v1.4PL0 Copyright (c) Steve Scherf et al.
# Submitted via: ExactAudioCopy v0.90b3
#
DISCID=7707480a
DTITLE=The Forester Sisters - You Again
DYEAR=1900
DGENRE=Country
TTITLE0=That's What Your Love Does To Me
TTITLE1=(I'd Choose) You Again
TTITLE2=Before You
TTITLE3=Too Many Rivers
TTITLE4=My Mother's Eyes
TTITLE5=Sooner Or Later
TTITLE6=I Can't Lose What I Never Had
TTITLE7=Lyin' In His Arms Again
TTITLE8=Down The Road
TTITLE9=Wrap Me Up
EXTD=
EXTT0=
EXTT1=
EXTT2=
EXTT3=
EXTT4=
EXTT5=
EXTT6=
EXTT7=
EXTT8=
EXTT9=
PLAYORDER=
